<?xml version="1.0" standalone="no"?>
<!DOCTYPE svg PUBLIC "-//W3C//DTD SVG 20010904//EN"
 "http://www.w3.org/TR/2001/REC-SVG-20010904/DTD/svg10.dtd">
<svg version="1.0" xmlns="http://www.w3.org/2000/svg"
 width="481.000000pt" height="481.000000pt" viewBox="0 0 481.000000 481.000000"
 preserveAspectRatio="xMidYMid meet">
<metadata>
Created by potrace 1.11, written by Peter Selinger 2001-2013
</metadata>
<g transform="translate(0.000000,481.000000) scale(0.100000,-0.100000)"
fill="#000000" stroke="none">
<path d="M320 3142 c0 -4 -13 -88 -30 -187 -77 -468 -190 -1209 -190 -1247 0
-9 50 -6 105 6 6 2 31 6 56 10 l47 8 18 139 c14 110 21 139 34 140 8 0 24 2
35 4 81 15 215 28 215 21 0 -12 30 -212 35 -234 3 -13 9 -21 13 -19 4 3 34 8
67 11 138 15 145 17 145 40 0 31 -196 1212 -215 1294 -5 22 -7 22 -170 22 -91
0 -165 -3 -165 -8z m210 -585 c26 -171 45 -315 42 -319 -4 -3 -50 -9 -103 -13
l-97 -7 13 78 c7 44 30 198 51 344 21 146 40 257 42 247 2 -10 25 -158 52
-330z"/>
<path d="M970 2486 l0 -664 33 4 c17 2 46 6 62 8 17 2 47 5 67 5 l38 1 2 477
3 477 28 -94 c38 -129 212 -734 227 -789 l11 -44 82 7 c45 3 97 6 115 6 l32 0
0 635 0 635 -100 0 -100 0 -2 -357 -3 -358 -22 75 c-11 41 -59 201 -105 355
l-84 280 -142 3 -142 3 0 -665z"/>
<path d="M1829 3148 c-1 -2 -2 -286 -3 -631 l-2 -628 81 5 c44 2 95 5 113 5
l32 1 0 625 0 625 -110 0 c-60 0 -111 -1 -111 -2z"/>
<path d="M2207 3143 c-2 -5 -3 -285 -3 -623 l1 -615 113 -2 112 -2 0 269 0
270 143 0 143 0 0 90 0 90 -143 0 -143 0 0 180 0 180 180 0 180 0 0 85 0 85
-289 0 c-160 0 -292 -3 -294 -7z"/>
<path d="M2890 2521 l0 -628 78 -2 c42 -1 102 -4 132 -6 30 -2 98 -7 150 -10
52 -3 125 -8 163 -11 l67 -6 0 100 0 100 -32 4 c-17 3 -61 6 -97 7 -36 1 -75
4 -86 6 -11 2 -48 4 -82 4 l-63 1 0 535 0 535 -115 0 -115 0 0 -629z"/>
<path d="M3570 2500 l0 -650 23 -1 c12 0 29 -2 37 -3 8 -2 50 -6 92 -10 l78
-7 -1 661 -1 660 -114 0 -114 0 0 -650z"/>
<path d="M3920 3145 c0 -3 31 -89 69 -193 38 -103 89 -243 113 -311 l45 -125
-35 -95 c-100 -277 -212 -600 -209 -602 25 -10 201 -28 208 -22 4 5 44 121 88
258 45 138 85 256 89 262 7 11 86 -238 153 -482 12 -44 26 -84 30 -89 7 -8
192 -45 225 -46 14 0 -59 256 -165 579 l-69 213 114 326 c63 179 114 327 114
329 0 2 -47 3 -104 3 l-104 0 -20 -57 c-12 -32 -40 -112 -62 -178 -23 -66 -52
-148 -64 -183 l-22 -64 -80 239 -80 238 -117 3 c-64 1 -117 0 -117 -3z"/>
</g>
</svg>
